nColumns=19
nRows=82
DataType=double
version=3
OpenSimVersion=4.1
endheader
time	ground_force_1_vx	ground_force_1_vy	ground_force_1_vz	ground_force_1_px	ground_force_1_py	ground_force_1_pz	ground_force_1_mx	ground_force_1_my	ground_force_1_mz	ground_force_2_vx	ground_force_2_vy	ground_force_2_vz	ground_force_2_px	ground_force_2_py	ground_force_2_pz	ground_force_2_mx	ground_force_2_my	ground_force_2_mz
0	-6.2516	69.4063	9.31823	0.103496	0.006	-0.200432	0	0.352791	0	0	0	0	0.676292	0	-0.315871	0	0	0
0.01	-11.1348	97.8288	10.7442	0.110315	0.006	-0.201115	0	0.300362	0	0	0	0	0.676292	0	-0.315871	0	0	0
0.02	-17.3302	130.976	11.9692	0.116885	0.006	-0.201551	0	0.246974	0	0	0	0	0.676292	0	-0.315871	0	0	0
0.03	-24.9087	168.422	12.8287	0.122582	0.006	-0.201757	0	0.19097	0	0	0	0	0.676292	0	-0.315871	0	0	0
0.04	-33.7924	209.462	13.1425	0.127793	0.006	-0.201817	0	0.133075	0	0	0	0	0.676292	0	-0.315871	0	0	0
0.05	-43.7411	253.175	12.7371	0.132722	0.006	-0.201775	0	0.075495	0	0	0	0	0.676292	0	-0.315871	0	0	0
0.06	-54.4195	298.447	11.4761	0.137476	0.006	-0.201658	0	0.022002	0	0	0	0	0.676292	0	-0.315871	0	0	0
0.07	-65.4391	344.063	9.29536	0.142102	0.006	-0.201492	0	-0.021177	0	0	0	0	0.676292	0	-0.315871	0	0	0
0.08	-76.3737	388.834	6.24337	0.146604	0.006	-0.201306	0	-0.044491	0	0	0	0	0.676292	0	-0.315871	0	0	0
0.09	-86.7862	431.696	2.50825	0.150958	0.006	-0.201138	0	-0.036573	0	0	0	0	0.676292	0	-0.315871	0	0	0
0.1	-96.2593	471.806	-1.60181	0.155123	0.006	-0.201027	0	0.011567	0	0	0	0	0.676292	0	-0.315871	0	0	0
0.11	-104.448	508.629	-5.7346	0.159058	0.006	-0.201006	0	0.102015	0	0	0	0	0.676292	0	-0.315871	0	0	0
0.12	-111.107	541.914	-9.55465	0.162721	0.006	-0.201097	0	0.229887	0	0	0	0	0.676292	0	-0.315871	0	0	0
0.13	-116.065	571.538	-12.777	0.166079	0.006	-0.201312	0	0.385949	0	0	0	0	0.676292	0	-0.315871	0	0	0
0.14	-119.226	597.365	-15.21	0.169107	0.006	-0.20165	0	0.558012	0	0	0	0	0.676292	0	-0.315871	0	0	0
0.15	-120.574	619.179	-16.7888	0.171803	0.006	-0.202098	0	0.732393	0	0	0	0	0.676292	0	-0.315871	0	0	0
0.16	-120.172	636.698	-17.5697	0.174181	0.006	-0.202633	0	0.896334	0	0	0	0	0.676292	0	-0.315871	0	0	0
0.17	-118.161	649.623	-17.6981	0.17628	0.006	-0.203227	0	1.03986	0	0	0	0	0.676292	0	-0.315871	0	0	0
0.18	-114.747	657.719	-17.3655	0.178149	0.006	-0.203853	0	1.15656	0	0	0	0	0.676292	0	-0.315871	0	0	0
0.19	-110.187	660.882	-16.7646	0.179848	0.006	-0.204486	0	1.24343	0	0	0	0	0.676292	0	-0.315871	0	0	0
0.2	-104.759	659.2	-16.052	0.181439	0.006	-0.205113	0	1.30014	0	0	0	0	0.676292	0	-0.315871	0	0	0
0.21	-98.7426	652.999	-15.3265	0.182979	0.006	-0.205722	0	1.32812	0	0	0	0	0.676292	0	-0.315871	0	0	0
0.22	-92.3921	642.849	-14.6248	0.184516	0.006	-0.206313	0	1.32951	0	0	0	0	0.676292	0	-0.315871	0	0	0
0.23	-85.9223	629.525	-13.9334	0.186088	0.006	-0.206888	0	1.30656	0	0	0	0	0.676292	0	-0.315871	0	0	0
0.24	-79.5022	613.94	-13.2106	0.187717	0.006	-0.207451	0	1.26108	0	0	0	0	0.676292	0	-0.315871	0	0	0
0.25	-73.2574	597.055	-12.4106	0.18942	0.006	-0.208007	0	1.19438	0	0	0	0	0.676292	0	-0.315871	0	0	0
0.26	-67.2753	579.805	-11.5041	0.191201	0.006	-0.208559	0	1.1074	0	0	0	0	0.676292	0	-0.315871	0	0	0
0.27	-61.6113	563.041	-10.4888	0.193061	0.006	-0.209101	0	1.00128	0	0	0	0	0.676292	0	-0.315871	0	0	0
0.28	-56.2951	547.478	-9.39108	0.195003	0.006	-0.209627	0	0.877489	0	0	0	0	0.676292	0	-0.315871	0	0	0
0.29	-51.3369	533.67	-8.26054	0.197028	0.006	-0.210123	0	0.737889	0	0	0	0	0.676292	0	-0.315871	0	0	0
0.3	-46.7319	522	-7.15878	0.199143	0.006	-0.210573	0	0.58455	0	0	0	0	0.676292	0	-0.315871	0	0	0
0.31	-42.4638	512.682	-6.14861	0.201359	0.006	-0.21096	0	0.419337	0	0	0	0	0.676292	0	-0.315871	0	0	0
0.32	-38.5055	505.784	-5.28547	0.203693	0.006	-0.21127	0	0.243665	0	0	0	0	0.676292	0	-0.315871	0	0	0
0.33	-34.8208	501.252	-4.6127	0.206163	0.006	-0.21149	0	0.058499	0	0	0	0	0.676292	0	-0.315871	0	0	0
0.34	-31.3687	498.946	-4.15979	0.208788	0.006	-0.211615	0	-0.135634	0	0	0	0	0.676292	0	-0.315871	0	0	0
0.35	-28.1059	498.667	-3.94314	0.211587	0.006	-0.211641	0	-0.338571	0	0	0	0	0.676292	0	-0.315871	0	0	0
0.36	-24.99	500.186	-3.96787	0.214573	0.006	-0.211568	0	-0.550175	0	0	0	0	0.676292	0	-0.315871	0	0	0
0.37	-21.9816	503.263	-4.23119	0.217753	0.006	-0.211403	0	-0.769948	0	0	0	0	0.676292	0	-0.315871	0	0	0
0.38	-19.0436	507.665	-4.7256	0.221123	0.006	-0.211153	0	-0.996777	0	0	0	0	0.676292	0	-0.315871	0	0	0
0.39	-16.14	513.177	-5.43921	0.224671	0.006	-0.210828	0	-1.22879	0	0	0	0	0.676292	0	-0.315871	0	0	0
0.4	-13.235	519.605	-6.35466	0.228373	0.006	-0.210439	0	-1.46355	0	0	0	0	0.676292	0	-0.315871	0	0	0
0.41	-10.2921	526.774	-7.44751	0.232198	0.006	-0.209999	0	-1.69849	0	0	0	0	0.676292	0	-0.315871	0	0	0
0.42	-7.27224	534.524	-8.68519	0.236106	0.006	-0.209521	0	-1.9313	0	0	0	0	0.676292	0	-0.315871	0	0	0
0.43	-4.13424	542.707	-10.0282	0.240055	0.006	-0.209021	0	-2.1603	0	0	0	0	0.676292	0	-0.315871	0	0	0
0.44	-0.836874	551.19	-11.4321	0.243998	0.006	-0.20851	0	-2.38466	0	0	0	0	0.676292	0	-0.315871	0	0	0
0.45	2.65904	559.851	-12.8496	0.247891	0.006	-0.208001	0	-2.60426	0	0	0	0	0.676292	0	-0.315871	0	0	0
0.46	6.3881	568.574	-14.2327	0.251691	0.006	-0.207507	0	-2.81932	0	0	0	0	0.676292	0	-0.315871	0	0	0
0.47	10.3774	577.242	-15.534	0.255363	0.006	-0.207037	0	-3.03013	0	0	0	0	0.676292	0	-0.315871	0	0	0
0.48	14.6443	585.719	-16.7095	0.258877	0.006	-0.2066	0	-3.23665	0	0	0	0	0.676292	0	-0.315871	0	0	0
0.49	19.1945	593.843	-17.7213	0.262213	0.006	-0.206201	0	-3.43806	0	0	0	0	0.676292	0	-0.315871	0	0	0
0.5	24.0194	601.419	-18.5394	0.265356	0.006	-0.205845	0	-3.63256	0	0	0	0	0.676292	0	-0.315871	0	0	0
0.51	29.0951	608.216	-19.142	0.268304	0.006	-0.205534	0	-3.81704	0	0	0	0	0.676292	0	-0.315871	0	0	0
0.52	34.3809	613.968	-19.5158	0.271058	0.006	-0.205267	0	-3.98723	0	0	0	0	0.676292	0	-0.315871	0	0	0
0.53	39.8188	618.382	-19.6549	0.273625	0.006	-0.20504	0	-4.138	0	0	0	0	0.676292	0	-0.315871	0	0	0
0.54	45.334	621.151	-19.5565	0.276017	0.006	-0.204848	0	-4.26389	0	0	0	0	0.676292	0	-0.315871	0	0	0
0.55	50.8354	621.964	-19.2147	0.27825	0.006	-0.204683	0	-4.35995	0	0	0	0	0.676292	0	-0.315871	0	0	0
0.56	56.2167	620.513	-18.6174	0.280336	0.006	-0.204539	0	-4.42247	0	-0.928977	23.8371	-3.92609	0.681958	0.006	-0.317147	0	0.264887	0
0.57	61.3586	616.493	-17.7458	0.282293	0.006	-0.204407	0	-4.44926	0	-2.98905	40.7083	-4.33276	0.718568	0.006	-0.325045	0	0.312856	0
0.58	66.1321	609.604	-16.5785	0.284135	0.006	-0.20428	0	-4.43948	0	-5.83591	61.477	-4.71223	0.737661	0.006	-0.328709	0	0.302713	0
0.59	70.4007	599.559	-15.0999	0.285877	0.006	-0.204147	0	-4.39325	0	-9.5919	86.2401	-5.02474	0.749744	0.006	-0.330687	0	0.263492	0
0.6	74.025	586.095	-13.3094	0.287534	0.006	-0.203999	0	-4.31113	0	-14.3624	114.836	-5.21934	0.758413	0.006	-0.331835	0	0.205395	0
0.61	76.868	568.993	-11.229	0.289121	0.006	-0.203825	0	-4.1937	0	-20.2025	146.808	-5.23619	0.765245	0.006	-0.332525	0	0.134113	0
0.62	78.8021	548.101	-8.90728	0.290653	0.006	-0.203615	0	-4.04142	0	-27.0335	181.49	-5.00073	0.771036	0.006	-0.332943	0	0.055018	0
0.63	79.7174	523.358	-6.42077	0.292145	0.006	-0.203356	0	-3.85481	0	-34.6387	218.054	-4.42614	0.776219	0.006	-0.3332	0	-0.025988	0
0.64	79.5305	494.826	-3.87063	0.293612	0.006	-0.203036	0	-3.63471	0	-42.7325	255.495	-3.4306	0.781044	0.006	-0.333358	0	-0.102559	0
0.65	78.1933	462.713	-1.37239	0.295076	0.006	-0.202642	0	-3.38289	0	-50.9995	292.715	-1.95228	0.78566	0.006	-0.333457	0	-0.168912	0
0.66	75.7008	427.399	0.957082	0.296557	0.006	-0.202164	0	-3.10291	0	-59.1226	328.676	0.0342954	0.790156	0.006	-0.333521	0	-0.222347	0
0.67	72.0982	389.448	3.0113	0.298083	0.006	-0.201591	0	-2.80029	0	-66.818	362.546	2.4986	0.794577	0.006	-0.333562	0	-0.265156	0
0.68	67.4845	349.601	4.70548	0.299684	0.006	-0.200913	0	-2.48228	0	-73.8506	393.768	5.34661	0.798937	0.006	-0.333582	0	-0.304122	0
0.69	62.012	308.744	5.98672	0.301396	0.006	-0.200123	0	-2.15729	0	-80.0361	422.056	8.43488	0.803228	0.006	-0.333578	0	-0.347989	0
0.7	55.8804	267.844	6.83879	0.303259	0.006	-0.199211	0	-1.83428	0	-85.2509	447.384	11.5983	0.80743	0.006	-0.333542	0	-0.404449	0
0.71	49.323	227.875	7.27986	0.305321	0.006	-0.198168	0	-1.52203	0	-89.4422	469.94	14.6749	0.811519	0.006	-0.333465	0	-0.478262	0
0.72	42.5861	189.736	7.35374	0.307644	0.006	-0.196971	0	-1.22827	0	-92.6099	490.047	17.5212	0.815467	0.006	-0.333341	0	-0.570889	0
0.73	35.9071	154.194	7.12067	0.310319	0.006	-0.195582	0	-0.959096	0	-94.7833	508.066	20.0225	0.819244	0.006	-0.333165	0	-0.680732	0
0.74	29.497	121.838	6.64964	0.313495	0.006	-0.193929	0	-0.718873	0	-96.0112	524.336	22.1045	0.822821	0.006	-0.332935	0	-0.803458	0
0.75	23.527	93.0746	6.01144	0.317437	0.006	-0.191873	0	-0.51041	0	-96.3562	539.136	23.7362	0.826179	0.006	-0.332657	0	-0.932759	0
0.76	18.1232	68.1242	5.27245	0.322659	0.006	-0.189147	0	-0.335268	0	-95.8865	552.654	24.9226	0.829302	0.006	-0.332341	0	-1.06119	0
0.77	13.3673	47.034	4.49099	0.330265	0.006	-0.18517	0	-0.194162	0	-94.6761	564.958	25.6949	0.83219	0.006	-0.332	0	-1.18083	0
0.78	9.29919	29.7001	3.71487	0.343054	0.006	-0.178468	0	-0.088159	0	-92.8047	576.008	26.1005	0.834851	0.006	-0.331649	0	-1.28393	0
0.79	0	0	0	0.36539	0	-0.171504	0	0	0	-90.357	585.688	26.1959	0.837308	0.006	-0.331302	0	-1.36352	0
0.8	0	0	0	0.387754	0	-0.171676	0	0	0	-87.4209	593.845	26.0401	0.839592	0.006	-0.330974	0	-1.4139	0
0.81	0	0	0	0.410117	0	-0.171848	0	0	0	-84.0851	600.33	25.6895	0.84174	0.006	-0.330675	0	-1.43124	0
